<svg xmlns="http://www.w3.org/2000/svg" viewBox="0 0 32 32">
  <path d="M 16 4 C 8 4, 4 10, 4 18 L 4 26 C 4 26, 7 30, 10 26 C 10 26, 13 30, 16 26 C 16 26, 19 30, 22 26 C 22 26, 25 30, 28 26 L 28 18 C 28 10, 24 4, 16 4 Z"
        fill="#FFF8E8" stroke="#1F1610" stroke-width="1.6" stroke-linejoin="round"/>
  <ellipse cx="11" cy="16" rx="1.6" ry="2" fill="#1F1610"/>
  <ellipse cx="21" cy="16" rx="1.6" ry="2" fill="#1F1610"/>
  <ellipse cx="9" cy="20" rx="2" ry="1.4" fill="#FFB5B0"/>
  <ellipse cx="23" cy="20" rx="2" ry="1.4" fill="#FFB5B0"/>
  <path d="M 14 22 Q 16 24, 18 22" stroke="#1F1610" stroke-width="1.2" fill="none" stroke-linecap="round"/>
</svg>
